<?xml version="1.0" encoding="utf-8"?>
<!-- Generator: Adobe Illustrator 27.2.0, SVG Export Plug-In . SVG Version: 6.00 Build 0)  -->
<svg version="1.1" id="Capa_1" xmlns="http://www.w3.org/2000/svg" xmlns:xlink="http://www.w3.org/1999/xlink" x="0px" y="0px"
	 viewBox="0 0 307.1 62.8" style="enable-background:new 0 0 307.1 62.8;" xml:space="preserve">
<style type="text/css">
	.st0{fill:#333333;}
</style>
<rect class="st0" width="4.8" height="62.7"/>
<rect x="7.7" y="0.1" class="st0" width="2" height="62.7"/>
<rect x="15.2" y="0.1" class="st0" width="2" height="62.7"/>
<rect x="27.7" y="0.1" class="st0" width="2" height="62.7"/>
<rect x="47.7" y="0.1" class="st0" width="2.1" height="62.7"/>
<rect x="55.2" y="0.1" class="st0" width="2.1" height="62.7"/>
<rect x="75.2" y="0.1" class="st0" width="2.1" height="62.7"/>
<rect x="92.6" y="0.1" class="st0" width="2.1" height="62.7"/>
<rect x="97.6" y="0.1" class="st0" width="2.1" height="62.7"/>
<rect x="110.1" y="0.1" class="st0" width="2.1" height="62.7"/>
<rect x="125.1" y="0.1" class="st0" width="2.1" height="62.7"/>
<rect x="152.6" y="0.1" class="st0" width="2.1" height="62.7"/>
<rect x="157.6" y="0.1" class="st0" width="2.1" height="62.7"/>
<rect x="165.1" y="0.1" class="st0" width="2.1" height="62.7"/>
<rect x="177.6" y="0.1" class="st0" width="2.1" height="62.7"/>
<rect x="192.6" y="0.1" class="st0" width="2.1" height="62.7"/>
<rect x="212.6" y="0.1" class="st0" width="2.1" height="62.7"/>
<rect x="220.1" y="0.1" class="st0" width="2.1" height="62.7"/>
<rect x="242.5" y="0.1" class="st0" width="2.1" height="62.7"/>
<rect x="247.5" y="0.1" class="st0" width="2.1" height="62.7"/>
<rect x="257.5" y="0.1" class="st0" width="2.1" height="62.7"/>
<rect x="297.5" y="0.1" class="st0" width="2.1" height="62.7"/>
<rect x="302.5" y="0.1" class="st0" width="4.6" height="62.7"/>
<rect x="287.5" y="0.1" class="st0" width="7.1" height="62.7"/>
<rect x="275" y="0.1" class="st0" width="4.6" height="62.7"/>
<rect x="262.5" y="0.1" class="st0" width="9.6" height="62.7"/>
<rect x="230" y="0.1" class="st0" width="9.6" height="62.7"/>
<rect x="205.1" y="0.1" class="st0" width="4.6" height="62.7"/>
<rect x="182.6" y="0.1" class="st0" width="4.6" height="62.7"/>
<rect x="137.6" y="0.1" class="st0" width="4.6" height="62.7"/>
<rect x="115.1" y="0.1" class="st0" width="4.6" height="62.7"/>
<rect x="82.7" y="0.1" class="st0" width="4.6" height="62.7"/>
<rect x="67.6" y="0.1" class="st0" width="4.6" height="62.7"/>
<rect x="32.7" y="0.1" class="st0" width="9.6" height="62.7"/>
</svg>
